<?xml version="1.0" encoding="UTF-8"?>
<svg width="492px" height="410px" viewBox="0 0 492 410" version="1.1" xmlns="http://www.w3.org/2000/svg" xmlns:xlink="http://www.w3.org/1999/xlink">
    <!-- Generator: Sketch 51.3 (57544) - http://www.bohemiancoding.com/sketch -->
    <title>left-arrow</title>
    <desc>Created with Sketch.</desc>
    <defs></defs>
    <g id="Page-1" stroke="none" stroke-width="1" fill="none" fill-rule="evenodd">
        <g id="left-arrow" fill="#FFFFFF" fill-rule="nonzero">
            <path d="M464.344,166.418 L465.112,166.586 L135.888,166.586 L239.384,62.862 C244.452,57.798 247.232,50.938 247.232,43.738 C247.232,36.538 244.452,29.726 239.384,24.65 L223.28,8.538 C218.216,3.474 211.468,0.674 204.272,0.674 C197.072,0.674 190.32,3.454 185.256,8.518 L7.844,185.914 C2.76,190.998 -0.02,197.77 0,204.974 C-0.02,212.218 2.76,218.994 7.844,224.07 L185.256,401.482 C190.32,406.542 197.068,409.326 204.272,409.326 C211.468,409.326 218.216,406.538 223.28,401.482 L239.384,385.37 C244.452,380.314 247.232,373.562 247.232,366.362 C247.232,359.166 244.452,352.77 239.384,347.71 L134.72,243.406 L464.712,243.406 C479.54,243.406 492,230.626 492,215.806 L492,193.018 C492,178.198 479.172,166.418 464.344,166.418 Z" id="Shape"></path>
        </g>
    </g>
</svg>